<?xml version="1.0" encoding="utf-8"?>
<!-- Generator: Adobe Illustrator 26.0.2, SVG Export Plug-In . SVG Version: 6.00 Build 0)  -->
<svg version="1.1" xmlns="http://www.w3.org/2000/svg" xmlns:xlink="http://www.w3.org/1999/xlink" x="0px" y="0px"
	 viewBox="0 0 3000 3000" style="enable-background:new 0 0 3000 3000;" xml:space="preserve">
<style type="text/css">
	.st0{clip-path:url(#SVGID_00000051342461768847585400000014260966993066561181_);fill:#4DCDD7;}
	.st1{clip-path:url(#SVGID_00000051342461768847585400000014260966993066561181_);fill:#FEFCFE;}
	.st2{clip-path:url(#SVGID_00000051342461768847585400000014260966993066561181_);fill:#AFFDFF;}
	.st3{clip-path:url(#SVGID_00000051342461768847585400000014260966993066561181_);fill:#004F48;}
	.st4{clip-path:url(#SVGID_00000051342461768847585400000014260966993066561181_);fill:#52A11B;}
	.st5{clip-path:url(#SVGID_00000051342461768847585400000014260966993066561181_);fill:#E0E601;}
	.st6{clip-path:url(#SVGID_00000051342461768847585400000014260966993066561181_);fill:#FFD887;}
	.st7{clip-path:url(#SVGID_00000051342461768847585400000014260966993066561181_);fill:#F48C09;}
	.st8{clip-path:url(#SVGID_00000089545587025173874460000004506034737596500915_);fill:#E0E601;}
	.st9{clip-path:url(#SVGID_00000089545587025173874460000004506034737596500915_);}
	.st10{clip-path:url(#SVGID_00000089545587025173874460000004506034737596500915_);fill:#5900AF;}
	.st11{clip-path:url(#SVGID_00000118386999416953826430000002616809372727429818_);}
	.st12{fill:none;stroke:#E2319E;stroke-width:20;stroke-miterlimit:10;}
	.st13{fill:#FDA54F;}
	.st14{clip-path:url(#SVGID_00000089545587025173874460000004506034737596500915_);fill:#A10069;}
	.st15{clip-path:url(#SVGID_00000089545587025173874460000004506034737596500915_);fill:#FCFDFE;}
	.st16{clip-path:url(#SVGID_00000101101101873885572880000008896294424444829083_);fill:#1701AF;}
	.st17{clip-path:url(#SVGID_00000101101101873885572880000008896294424444829083_);fill:#E2319E;}
	.st18{clip-path:url(#SVGID_00000101101101873885572880000008896294424444829083_);fill:#06ACB8;}
	.st19{clip-path:url(#SVGID_00000089545587025173874460000004506034737596500915_);fill:#D17000;}
	.st20{clip-path:url(#SVGID_00000089545587025173874460000004506034737596500915_);fill:#FDA54F;}
	
		.st21{clip-path:url(#SVGID_00000089545587025173874460000004506034737596500915_);fill:#FEFFFF;stroke:#E2319E;stroke-width:16;stroke-miterlimit:10;}
	
		.st22{clip-path:url(#SVGID_00000089545587025173874460000004506034737596500915_);fill:none;stroke:#000000;stroke-width:16;stroke-miterlimit:10;}
	.st23{clip-path:url(#SVGID_00000089545587025173874460000004506034737596500915_);fill:#E2319E;}
	.st24{clip-path:url(#SVGID_00000078751620117086166240000005880323794271566214_);fill:#E2319E;}
	.st25{clip-path:url(#SVGID_00000078751620117086166240000005880323794271566214_);fill:#1701AF;}
	.st26{clip-path:url(#SVGID_00000078751620117086166240000005880323794271566214_);fill:#06ACB8;}
	.st27{fill:#6E00DC;}
	.st28{clip-path:url(#SVGID_00000012435257885972613670000001572827282010073753_);}
	.st29{fill:#7D9701;}
	.st30{fill:#809701;}
	.st31{fill:#004E28;}
	.st32{fill:#004E2B;}
	.st33{fill:#E5313B;}
	.st34{fill:#FFAD55;}
	.st35{fill:#FF575F;}
	.st36{fill:#004F48;}
</style>
<g id="Layer_3">
	<g>
		<defs>
			<rect id="SVGID_1_" width="3000" height="3000"/>
		</defs>
		<clipPath id="SVGID_00000029017226484499884010000016119642833310802610_">
			<use xlink:href="#SVGID_1_"  style="overflow:visible;"/>
		</clipPath>
		
			<rect style="clip-path:url(#SVGID_00000029017226484499884010000016119642833310802610_);fill:#4DCDD7;" width="3000" height="3000"/>
		<path style="clip-path:url(#SVGID_00000029017226484499884010000016119642833310802610_);fill:#FEFCFE;" d="M6.5,274.9
			c153.6-52.8,364.1,0,354.4,161.6c78.9-93.3,261.7-55.8,313.3,64.5c198.7-68.2,283,21.8,195.5,144.6L438.1,755.2l-673.6-19
			L6.5,274.9z"/>
		<path style="clip-path:url(#SVGID_00000029017226484499884010000016119642833310802610_);fill:#AFFDFF;" d="M564.5,552.1
			c101.1-82.3,380.8-156.9,501.7,0c57.5-32.3,167-7.9,172.6,59.3c84.9-55.1,252.5-32.1,261.1,62c29.2-28.3,100.3-19.9,100.3,21.6
			l-669,13.5l-415.6,10.8L564.5,552.1z"/>
		<path style="clip-path:url(#SVGID_00000029017226484499884010000016119642833310802610_);fill:#FEFCFE;" d="M-46.4,755.9
			c-13.1,117.4,307,163.4,333.4,49.7c78.7,86.6,154.5,74,228.7,0c89.8,53.7,207.1,57.3,300.8-18.7
			c226.5,70.5,228.2-256.5,39.6-114.7c0-108.7-182.9-137.5-200.2-27c-2.6-170.3-200.4-145.8-224.3,0c30-217.9-350.3-279.2-446-12.6
			L-46.4,755.9z"/>
		<polygon style="clip-path:url(#SVGID_00000029017226484499884010000016119642833310802610_);fill:#004F48;" points="1368,1219.7 
			1444.2,1411.7 947.8,1544.8 865.1,1314.6 		"/>
		<path style="clip-path:url(#SVGID_00000029017226484499884010000016119642833310802610_);fill:#004F48;" d="M-37.6,1526
			c-47.7-364.1,382.9-677,671.4-389.9c135.4-105.6,352.4-119.6,466.1,38.6c96-46.2,188.1-6,206.4,81.4L-37.6,1526z"/>
		<path style="clip-path:url(#SVGID_00000029017226484499884010000016119642833310802610_);fill:#52A11B;" d="M-128.4,1251.4
			c283.7-222.9,891.9-107.8,1227.8,216.8l-1370,723.7l-258.1-506L-128.4,1251.4z"/>
		<path style="clip-path:url(#SVGID_00000029017226484499884010000016119642833310802610_);fill:#E0E601;" d="M-196.7,1911.9
			c425.8-425.8,2935-866.4,3366.7-874.4l407.5,2735.9L-817,3667.9L-196.7,1911.9z"/>
		<path style="clip-path:url(#SVGID_00000029017226484499884010000016119642833310802610_);fill:#FFD887;" d="M496.7,23.2
			c-10.4-8.5-179.7,20.7-179.7,20.7l76,34.6l-176.2,93.3l148.6-20.7l-93.3,131.3l235-117.5L486.4,348l86.4-86.4l18.1,264.2
			L673,282.4l16.7,301.8l69.7-256.9L825,482.8V327.3l79.5,58.7v-98L1007,448.2l-33.5-210.8l228,407.7l-145.1-425.3l183.1,170.5
			l-158.9-239.3l89.3,48l-34-72.2L1495.3,307L1163.6,92.3l193.5,24.2L1174,47.4l207.3-13.8l-241.9-48.4L1270.7-153L835.4-315.4
			L289.4-30.5L496.7,23.2z"/>
		
			<circle style="clip-path:url(#SVGID_00000029017226484499884010000016119642833310802610_);fill:#F48C09;" cx="783.9" cy="-30.5" r="250.4"/>
		<path style="clip-path:url(#SVGID_00000029017226484499884010000016119642833310802610_);fill:#FEFCFE;" d="M2195,817
			c-88.2-60.7-332.4-115.8-438,0c-50.2-23.8-145.8-5.9-150.7,43.8c-74.1-40.7-220.4-23.7-227.9,45.8c-25.5-20.9-87.6-14.6-87.6,15.9
			l584,10l362.8,8L2195,817z"/>
	</g>
</g>
<g id="Layer_2">
	<g>
		<defs>
			<rect id="SVGID_00000072990874154588160100000005015323486729696398_" width="3000" height="3000"/>
		</defs>
		<clipPath id="SVGID_00000141434656631147997680000011286752514320180103_">
			<use xlink:href="#SVGID_00000072990874154588160100000005015323486729696398_"  style="overflow:visible;"/>
		</clipPath>
		<path style="clip-path:url(#SVGID_00000141434656631147997680000011286752514320180103_);fill:#E0E601;" d="M2218.9,184.4
			c-77.5-93.7-340.2-16.7-194.6,113.8c-133.9-53.6-219.2,61.9-132.2,137.2c-194.1-35.1-225.9,111.4-127.2,157.3
			c-169,30.1-148,176.6,15.1,231l463.6,154l612.5-239.3c128.9-73.6,110.5-318-117.2-314.6C2769,321.6,2687,184.4,2588.3,258
			C2559.8,130.8,2427.6,52.2,2218.9,184.4z"/>
		<path style="clip-path:url(#SVGID_00000141434656631147997680000011286752514320180103_);" d="M2973,1327.3
			c36.3-16.5,167.3-112.4,115.8-182.5c-51.5-70.2-170.7-63.1-170.7-63.1L2973,1327.3z"/>
		<path style="clip-path:url(#SVGID_00000141434656631147997680000011286752514320180103_);fill:#5900AF;" d="M2880.7,847
			c-17.2-23-114.4-197-145-226.8c-76.2-74.1-184.1-48.6-261.7-28.4c0,0-473.5,88.4-534,89.2c-60.8,19.8-121.6,38.8-134.2,51
			c-69.8,67.2-117.8,363.9-117.8,363.9l43.1,78.7l606.4,169.6l135.1,115l241.5,73.4l40.2-162.5c0,0,66.5-207.6,106.8-190.3
			c10.7,4.6,36.4-15.2,60.7-15.2c66.4,0,161.7-19.1,165.9-67.5C3093.4,1031,2898,870,2880.7,847z"/>
		<g style="clip-path:url(#SVGID_00000141434656631147997680000011286752514320180103_);">
			<defs>
				<path id="SVGID_00000103252505978609951410000001322681948953939118_" d="M2880.7,847c-17.2-23-114.4-197-145-226.8
					c-76.2-74.1-184.1-48.6-261.7-28.4c0,0-473.5,88.4-534,89.2c-60.8,19.8-121.6,38.8-134.2,51c-69.8,67.2-117.8,363.9-117.8,363.9
					l43.1,78.7l606.4,169.6l135.1,115l241.5,73.4l40.2-162.5c0,0,66.5-207.6,106.8-190.3c10.7,4.6,36.4-15.2,60.7-15.2
					c66.4,0,161.7-19.1,165.9-67.5C3093.4,1031,2898,870,2880.7,847z"/>
			</defs>
			<clipPath id="SVGID_00000035493313595613639620000003616153453754964883_">
				<use xlink:href="#SVGID_00000103252505978609951410000001322681948953939118_"  style="overflow:visible;"/>
			</clipPath>
			<g style="clip-path:url(#SVGID_00000035493313595613639620000003616153453754964883_);">
				<path class="st12" d="M1907.9,666c10.8,27.8-22.2,76.3-7.7,98c16.5,24.7,73.9,11.8,93.5,29.3c22,19.7,16.3,77.8,39.7,89.6
					c26.8,13.5,70.4-26.4,95.5-21.5c32,6.3,60.9,57.4,83,53.1c30.6-5.9,47-65.4,78.3-79.5c29.6-13.3,84.6,14.7,111.4-4.9
					c26.8-19.7,15.9-79.7,36.5-104.9c21.2-25.9,82.8-29.1,93.9-59.8c11-30.4-34.3-69.9-36.7-104.2"/>
			</g>
		</g>
		<g style="clip-path:url(#SVGID_00000141434656631147997680000011286752514320180103_);">
			<path class="st13" d="M949,1672.4c-12.9,16.6,184.9-174.2,155.8-200.7c-55,8.5-242.1,28.7-306.1,103.7L949,1672.4z"/>
		</g>
		<path style="clip-path:url(#SVGID_00000141434656631147997680000011286752514320180103_);fill:#A10069;" d="M1864,1128.1
			c-103.6-57-393.1-120.6-543.3-39.6s-332.9,462.1-381.2,516.1c-48.3,54-154.8,217.5-160.5,265.8c-5.7,48.3-68.9,173-122.9,215.7
			s-98.7,140.1-81.7,174.2c17.1,34.1-48.3,207.5,201.8,278.6c250.2,71.1,448.4,0,441.7-45.5C1211.2,2447.9,1864,1128.1,1864,1128.1z
			"/>
		<path style="clip-path:url(#SVGID_00000141434656631147997680000011286752514320180103_);fill:#FCFDFE;" d="M609,2275.2
			c-22.7-162.5,260.7-120,319.3-54.9s147.2,85.5,198.7,110.5s107-4,91,162.6c-16,166.6-214.7,244.8-214.7,244.8l-589.6-237.8
			C413.6,2500.4,631.7,2437.7,609,2275.2z"/>
		<g style="clip-path:url(#SVGID_00000141434656631147997680000011286752514320180103_);">
			<defs>
				<path id="SVGID_00000127044194741867229580000002628161595156896143_" d="M574.4,2260.3c-19.5,223.7-570.7,434.5-672,495.8
					c-169.7,102.6-0.3,245.8,143.4,291.7c169.6,54.2,459.1,24.3,596.3-63.3c137.2-87.6,517.8,10.3,578.6-92.8
					c60.8-103.1-19-201-3.4-268c15.6-67,48.2-252-18.8-264c-67-12-98.5,176.3-182.1,160.9c-79.8-14.8-132.9-8.4-72.2-74.1
					c57.1-61.7,81.4-76.5,119.1-139.7C1105.1,2236.9,596.2,2010.5,574.4,2260.3z"/>
			</defs>
			<clipPath id="SVGID_00000027573691561866912910000006277961664219248269_">
				<use xlink:href="#SVGID_00000127044194741867229580000002628161595156896143_"  style="overflow:visible;"/>
			</clipPath>
			<path style="clip-path:url(#SVGID_00000027573691561866912910000006277961664219248269_);fill:#1701AF;" d="M574.4,2260.3
				c-19.5,223.7-570.7,434.5-672,495.8c-169.7,102.6-0.3,245.8,143.4,291.7c169.6,54.2,459.1,24.3,596.3-63.3
				c137.2-87.6,517.8,10.3,578.6-92.8c60.8-103.1-19-201-3.4-268c15.6-67,48.2-252-18.8-264c-67-12-98.5,176.3-182.1,160.9
				c-79.8-14.8-132.9-8.4-72.2-74.1c57.1-61.7,81.4-76.5,119.1-139.7C1105.1,2236.9,596.2,2010.5,574.4,2260.3z"/>
			<path style="clip-path:url(#SVGID_00000027573691561866912910000006277961664219248269_);fill:#E2319E;" d="M41.2,2686.9
				c-73.3,35.3-175.3,100-138.9,159.9s100.2,167.7,260.3,166.3c369.1-3.1,420.3-119.7,528.8-128c108.5-8.2,559,3.6,551.9-96.8
				c-8.6-122,124.2,115.5,124.2,115.5l-890,403.4l-713.1-111.9l-127.5-335.7L-50.8,2569L41.2,2686.9z"/>
			<path style="clip-path:url(#SVGID_00000027573691561866912910000006277961664219248269_);fill:#06ACB8;" d="M313.9,2542.6
				c-83.2,49.5-0.5,179.5,84.6,186.1c115.7,9,361.6-61.5,524.8-255.7c92.5-110.1,278.1-213.5,287.8-283
				c24.9-179.2-297.9-219.8-302.1-213.5c-5.8,8.7-595.1,95.8-595.1,95.8S397.2,2493.2,313.9,2542.6z"/>
		</g>
		<path style="clip-path:url(#SVGID_00000141434656631147997680000011286752514320180103_);fill:#D17000;" d="M2210.7,820
			c124.1-25.2,235.8-130.3,263.4-228.2c-62.7,10.5-115.1,11.1-156.5,18.9l-226.4,23.4c0,0-76.7,22.7-151.1,46.9
			C2029,815.3,2145.1,833.3,2210.7,820z"/>
		<path style="clip-path:url(#SVGID_00000141434656631147997680000011286752514320180103_);" d="M2471.4,963.4
			c9.2,73.5,10.7,315.9,167.8,345.7c157.2,29.8,5.2,75.4,5.2,75.4C2530,1359.1,2431.7,1301.1,2471.4,963.4z"/>
		<path style="clip-path:url(#SVGID_00000141434656631147997680000011286752514320180103_);" d="M2559,1098
			c-41.2,31.9-58.5,60-54.2,96.8c4.3,36.8,64,106.2,129.4,121.3s0-190.5,0-190.5L2559,1098z"/>
		<path style="clip-path:url(#SVGID_00000141434656631147997680000011286752514320180103_);fill:#D17000;" d="M2331.4,733.9
			c-63.5,37.7-104,24.9-104,24.9c0,0-0.1,1.3-47.1,2.9c-73.8,2.5-95.9,35.7-134.2,11l-36.5-38.8c76.6-13.9,89.7-61.2,82.2-155.7
			c-3.4-44-15.9-92.4-37.1-141l245.6-17.7l29,59.8c-12.7,29-23,58-30.6,86.4C2274.9,655,2287.2,675.4,2331.4,733.9z"/>
		<path style="clip-path:url(#SVGID_00000141434656631147997680000011286752514320180103_);fill:#FDA54F;" d="M2073.4,346.1
			c-37.9-3.2-57.5-3.5-69.2,37.2c-11.4,39.6,33.2,55.5,50.6,54c0,0,31.9,92.1,77.1,92.2c97,0.1,160.6-98.8,168.5-109.8
			c38,1.4,46.5-7.3,57.8-46.3c6.7-23.3-24.4-44.2-46.6-34.7c-25.1-24.1-46.5-70.6-45.3-99.9c-30.1-6.8-131.6,11.3-158.5,38.1
			C2080.9,303.7,2073.4,346.1,2073.4,346.1z"/>
		
			<path style="clip-path:url(#SVGID_00000141434656631147997680000011286752514320180103_);fill:#FEFFFF;stroke:#E2319E;stroke-width:16;stroke-miterlimit:10;" d="
			M2105.7,434.8c8.1-7.9,14.5-15.9,21.7-17.2s54.9-4.9,64-1.3c6.6,2.6,19.7,13.5,19.7,13.5s-19.4,16.8-29.4,18.8
			c-6.3,1.2-42.4,0.9-48.7,0.5S2105.7,434.8,2105.7,434.8z"/>
		<path style="clip-path:url(#SVGID_00000141434656631147997680000011286752514320180103_);fill:#5900AF;" d="M2817.6,1906.8
			c-0.8,3.1-2,6.1-3.5,8.8c-2.6,4.7-6.2,8.8-11.1,12.3c-24.2,17.1-84.4,14.2-117,7.7c-40.1-8-78.7-34.5-96.5-80.7
			c-32.2-83.8-22.6-222.4-22.6-222.4H2815c-9.2,14.8-16.7,30.7-21.7,47.4c-4.4,14.7-6.9,30-7.6,45.4c-0.6,14.3,0.4,28.6,2.5,42.7
			c2,13.3,5,26.4,8.6,39.4c3.3,11.9,7,23.6,10.7,35.4c3.2,10.2,6.4,20.3,8.7,30.7c1.9,8.3,3.3,16.9,2.7,25.4
			C2818.7,1901.7,2818.3,1904.3,2817.6,1906.8z"/>
		<path style="clip-path:url(#SVGID_00000141434656631147997680000011286752514320180103_);" d="M2817.4,1906.8
			c-0.1,0.5-0.2,0.9-0.3,1.4c-1.5,7.3-2.6,14.8-5.9,21.5c-0.5,1-1,2-1.6,3c-3,5.3-6.8,10-11.2,14.2c-18.1,17-76.8,53.8-109.5,47.3
			c0,0,61.4-184.2,61.4-184.3c-0.1,0.3,1,1.9,1.2,2.2c0.4,0.8,0.8,1.5,1.2,2.3c0.8,1.5,1.7,3,2.6,4.4c1.7,2.9,3.5,5.7,5.4,8.4
			c3.6,5.3,7.6,10.3,11.7,15.3c3.9,4.6,7.9,9.1,12,13.5c3.8,4,7.6,8,11.4,12c3.4,3.5,6.7,7.1,9.9,10.8c2.7,3.1,5.3,6.4,7.5,9.9
			c1.8,2.9,3.4,6,4.2,9.4C2818.3,1901,2817.9,1903.8,2817.4,1906.8z"/>
		<path style="clip-path:url(#SVGID_00000141434656631147997680000011286752514320180103_);" d="M1881,981.7
			c-28.7,45.5-84.3,111.7-17,146.4C1834.2,1066.5,1881,981.7,1881,981.7z"/>
		<path style="clip-path:url(#SVGID_00000141434656631147997680000011286752514320180103_);fill:#E2319E;" d="M2426.1,2126.6
			c-128.3-27.1-279.8-184.4-394.2-316.7c0,0-105.1,89.1-41.5,165.4c63.6,76.3,19.5,158.1-32.5,252.1
			c-38.3,69.2-18.3,263.2-21.3,414.6c-0.9,42.7-3.6,82-10,114.2c-29,146.2-338,120.4-481,93.5c-150-28.1-316.6-144.4-361.1-246.1
			c-4.3-9.8-5.9-21.4-5.1-34.4c6.7-122.7,215.3-373,278.5-438.1c69.9-72-12.7-112.4-25.4-176c-12.7-63.6,114.5-222.6,192.2-299.4
			c77.7-76.9,72.5-341,93.8-406.3c21.4-65.4,165.4-178,370.3-190.8c204.9-12.7,719.7,653.5,761.5,751.5
			C2792.2,1907.8,2625.6,2168.8,2426.1,2126.6z"/>
		<path style="clip-path:url(#SVGID_00000141434656631147997680000011286752514320180103_);fill:#A10069;" d="M2154.4,1653.3
			c-51.7,41.9-117.1,116-122.6,156.5c15.2,17.6,31.2,35.7,47.6,53.9C2096.9,1762.3,2154.4,1653.3,2154.4,1653.3z"/>
		<path style="clip-path:url(#SVGID_00000141434656631147997680000011286752514320180103_);fill:#FDA54F;" d="M2559,1098
			c25.1,62.8,102.6,255.3,82.1,310c-109.4-41-503.7-52.4-565.3-41c-61.5,11.4-159.6-72.9-216.5-57c-57,16-214.3,11.4-262.1,4.6
			c-47.9-6.8,34,79.5,108.2,86.6c74.2,7.1-14.1,89.9-49.1,92.2s-125.7-90.5-185.3-47.2c-15.9,11.6,177.5,88.8,172.4,112.3
			c-3.5,16.5-161.4-117.5-225.5-56.3c-11.4,10.9,226.9,94,215.6,120.3c-3.8,8.9-179.2-107.7-214.8-60.7
			c-16.3,21.6,205.8,90.4,202,120.4c-2.4,19.1-143.9-76.1-173.8-43.2c-12.8,14.1,79.7,45.8,130.2,77.6
			c44.9,28.2,136.3,21.4,181.9,12.3s237.3-97.5,269.2-170.5s672.4,209.7,784.1,150.4c111.7-59.3,178.1-312.4,164-548.1
			c-77.4,3.8-127.5-10.3-170.8-30.9C2761.8,1109.4,2618.2,1070.6,2559,1098z"/>
		<path style="clip-path:url(#SVGID_00000141434656631147997680000011286752514320180103_);fill:#FDA54F;" d="M798.8,1575.4
			c-64,75-63.4,230.2-32.5,276.9c23.4,35.4,43.9,81.2,67.8,133.6c21.8,47.7,173.9,62.8,242.3,73.8s139.2-1,135.4-11.4
			c-13.9-37.7-138.3-17.2-148.9-44.6c-6.1-15.7,218.1,21.2,207.9-5.5c-22.5-59.1-222.5-39-218-55.2c8.8-31.6,263.1,34.7,255.2,1.6
			c-17.9-74.3-252-38-256.4-63.9c-5-29.4,229.1,18.9,222-4.8c-17.9-60.4-201.5-41.6-227-52.5c-19-8.1-49.2-46.4-53.1-61.6
			c-7.1-27.3,150.1,12,167.2-59.9c4.7-19.5-139-22.1-194.2-44.1L798.8,1575.4z"/>
		<path style="clip-path:url(#SVGID_00000141434656631147997680000011286752514320180103_);" d="M1926.6,2756.1
			c-29,146.2-338,120.4-481,93.5c-150-28.1-316.6-144.4-361.1-246.1c-4.3-9.8-5.9-21.4-5.1-34.4c8.4-92.1,87.2-160.9,194.1-200.2
			c176.9-65.2,430.4-50,567.3,72.9c54.6,49,90.6,115.1,95.9,200.1C1938.7,2676.7,1935.6,2714.8,1926.6,2756.1z"/>
		<path style="clip-path:url(#SVGID_00000141434656631147997680000011286752514320180103_);fill:#FCFDFE;" d="M1840.7,2441.7
			l-24.4,85.7l-10.1,106.6l-50,104.2l-565.4-157.7c0,0,46.9-120.2,82.7-211.8C1450.3,2303.5,1703.8,2318.8,1840.7,2441.7z"/>
		<g style="clip-path:url(#SVGID_00000141434656631147997680000011286752514320180103_);">
			<defs>
				<path id="SVGID_00000161613690908078085840000003507610496821655724_" d="M1536.1,2446.5c-269.9-60.4-203,173.7-285.6,150.7
					c-40.5-11.3-19-115.9-6.5-153c7.5-22.2-89.4,7.6-108.9,71.7s30.6,239.5,0,317.5c-30.6,78-331.4,437.3-353.7,557
					c-22.3,119.8-27.9,406.6,389.9,465.1c417.8,58.5,648.9-370.4,643.4-448.4c-5.6-78-72.4-289.7-44.6-389.9
					c27.9-100.3,130.9-314.7,122.5-378.8s-71.9-126-76.4-111c-5.5,18.3-38.6,226.3-102.6,198.9
					C1669.7,2707.6,1786.6,2502.6,1536.1,2446.5z"/>
			</defs>
			<clipPath id="SVGID_00000112620375629775607470000005142155783315174580_">
				<use xlink:href="#SVGID_00000161613690908078085840000003507610496821655724_"  style="overflow:visible;"/>
			</clipPath>
			<path style="clip-path:url(#SVGID_00000112620375629775607470000005142155783315174580_);fill:#E2319E;" d="M1536.1,2446.5
				c-269.9-60.4-203,173.7-285.6,150.7c-40.5-11.3,16.7-149.5-6.5-153c-23.2-3.5-89.4,7.6-108.9,71.7s30.6,239.5,0,317.5
				c-30.6,78-331.4,437.3-353.7,557c-22.3,119.8-27.9,406.6,389.9,465.1c417.8,58.5,648.9-370.4,643.4-448.4
				c-5.6-78-72.4-289.7-44.6-389.9c27.9-100.3,130.9-314.7,122.5-378.8s-60.9-113.3-76.4-111c-15.5,2.3-38.6,226.3-102.6,198.9
				C1669.7,2707.6,1786.6,2502.6,1536.1,2446.5z"/>
			<path style="clip-path:url(#SVGID_00000112620375629775607470000005142155783315174580_);fill:#1701AF;" d="M1816.2,2527.5
				c16.3,86.7-56.1,323.4-89.6,454.4c-33.5,131,20.8,342.3,0,435.3s-143,284.7-330,333.9c-191,50.2-455.8-42.3-506.5-215.5
				c-60.6-206.9,260.2-566.2,278.9-665.1c21.6-114.3-6.6-389.1,74.9-426.2"/>
			<path style="clip-path:url(#SVGID_00000112620375629775607470000005142155783315174580_);fill:#06ACB8;" d="M1296.6,2566.1
				c-26.5,63.8-20.4,288.3-63.2,421.5c-39.9,124.2-178,250.4-165.2,361.2c12.8,110.8,329.2,270.9,421,55
				c86.5-203.6,42.5-303.6,69.4-389.9c29.6-95.1,136.4-226.8,144-331.6c8.5-116.9,2.7-268.2,2.7-268.2l-337.8-29.3
				C1367.5,2384.9,1326.8,2493.2,1296.6,2566.1z"/>
		</g>
		<path style="clip-path:url(#SVGID_00000141434656631147997680000011286752514320180103_);fill:#E0E601;" d="M2210.7,209.1
			c-8,11.4-80,30.1-140.4,36.4c26,9.7,74,13.8,106.6,0.2c-42.7,36.7-106.6,43.7-106.6,43.7s75.8,9.1,112.8-23.5
			c2.7,32.2-33.2,55.7-33.2,55.7s52.5-28.7,81.1-83.4c1,19.4,13.5,36.9-10.2,59.7c57.5-50.7,51.8-106.7,51.8-106.7
			C2254.3,184.5,2233.4,191.9,2210.7,209.1z"/>
		<g style="clip-path:url(#SVGID_00000141434656631147997680000011286752514320180103_);">
			<path class="st27" d="M2345,395.3c-8.8-9-24-2.3-23.5,10.2c2.6,58.2,15.7,169.4,78,145C2462.2,526,2386.7,437.8,2345,395.3z"/>
		</g>
		<g style="clip-path:url(#SVGID_00000141434656631147997680000011286752514320180103_);">
			<path class="st27" d="M2044.6,424.3c-2.5-12.3-18.9-15-25.3-4.1c-29.3,50.3-78.6,150.9-13.1,164.1
				C2072.2,597.7,2056.6,482.7,2044.6,424.3z"/>
		</g>
	</g>
</g>
<g id="Layer_5">
	<g>
		<defs>
			<rect id="SVGID_00000000198082633290577090000000768521232195771812_" width="3000" height="3000"/>
		</defs>
		<clipPath id="SVGID_00000160901965519368759460000014556778191233077408_">
			<use xlink:href="#SVGID_00000000198082633290577090000000768521232195771812_"  style="overflow:visible;"/>
		</clipPath>
		<g style="clip-path:url(#SVGID_00000160901965519368759460000014556778191233077408_);">
			<path class="st29" d="M2401.2,3090.9c2.7-60.1,74.5-523,277.4-561c-123.3,195.5-172.1,343.1-181.8,549.1
				C2490.5,3213.9,2401.2,3090.9,2401.2,3090.9z"/>
			<path class="st30" d="M1780.8,2508.3c3.4-7-168.2-236.5-245.4-183.5C1458.2,2377.7,1780.8,2508.3,1780.8,2508.3z"/>
			<path class="st31" d="M1884.7,2217.2c-28.7,33.4,31.6,315.5,99.1,287.2C2091.1,2459.5,1913.4,2183.8,1884.7,2217.2z"/>
			<path class="st32" d="M1780.9,2861.2c-17.5-17.3-403.8-130.1-427.2-22.7C1325.5,2968.1,1747.7,2875.9,1780.9,2861.2z"/>
			<path class="st30" d="M1797.7,2852.1c0,0-449.4,203.2-366.2,262.7C1514.7,3174.2,1797.7,2852.1,1797.7,2852.1z"/>
			<path class="st30" d="M2656.6,2054.2c0,0-14.9-479-140.5-486.8C2390.5,1559.7,2656.6,2054.2,2656.6,2054.2z"/>
			<path class="st30" d="M2541.5,2098.8c0,0-128-376.5-270.5-332.3C2124.7,1811.8,2484,2055.5,2541.5,2098.8z"/>
			<path class="st32" d="M2410.2,2172.1c-35.4-99.7-160.8-291-334-305.9C1928.7,1853.5,2354.2,2102.5,2410.2,2172.1z"/>
			<path class="st32" d="M2437.3,2196.5c0,0-254.3-158.3-333.6-116.6C2013.7,2127.4,2384.2,2161,2437.3,2196.5z"/>
			<path class="st32" d="M2599.3,2067.1c8.6-10.4,390.1-444.7,282.7-553.2C2711.4,1341.7,2651.9,1945,2599.3,2067.1z"/>
			<path class="st30" d="M2758.3,1926.8c0,0,35.3-394.5,118.8-324.5C2962.6,1673.9,2758.3,1926.8,2758.3,1926.8z"/>
			<path class="st30" d="M2775.3,1922.8c0,0,307.9-197.9,251.6-342.5C2967.1,1426.9,2848.4,1823.5,2775.3,1922.8z"/>
			<path class="st30" d="M2031.3,2587.1c0,0,109.8-605.8,204.9-512.7C2333.4,2169.5,2079.4,2540.2,2031.3,2587.1z"/>
			<path class="st30" d="M1805.8,2564.8c-20.5-87.3-244.7-448.8-128.1-407.1C1796.4,2200.1,1853.9,2517.9,1805.8,2564.8z"/>
			<path class="st32" d="M2679.8,2302.4c7.7,232.2,45.4,540.2,163,710.2s216.9-12.6,216.9-12.6v-675.3c0,0-147.1,285.6-129.7,578.3
				C2798.9,2748.8,2690.2,2414.8,2679.8,2302.4z"/>
			<path class="st32" d="M2393.6,2472.8c53.2,39.6,458.6,431,462.3,544.5c4.3,132.5,3.6-124.9,3.6-124.9S2508.6,2527,2393.6,2472.8z
				"/>
			<path class="st31" d="M2844,2367.5c-13-82.8,86-358.6,227.1-342.6C3190.4,2038.4,2888.5,2226,2844,2367.5z"/>
			<path class="st33" d="M2353.5,2141.2c-159.4-66.1-262.3,152.6-124.3,236.8c-127,114.2,29.2,301.6,165.8,210.2
				c-11.6,133.8,171.1,141.1,165.8,44.4c120.3,78.3,217.7,3,195.4-94.7c128.9,57.3,244-113.6,168.7-242.7
				c58.6-91.3,14.4-231-73.4-175.9L2353.5,2141.2z"/>
			<path class="st29" d="M2842.8,3058.1c-4-60.1-109.9-523-409.1-561c181.9,195.5,253.8,343.1,268.1,549.1
				C2711.1,3181.1,2842.8,3058.1,2842.8,3058.1z"/>
			<path class="st29" d="M2870,3055.5c3.1-60.1-109.2-640.7,122.1-678.7c-140.6,195.5-2,460.7-13.1,666.8
				C2971.8,3178.5,2870,3055.5,2870,3055.5z"/>
			<path class="st31" d="M2758.3,3059.1c-4-60.1-235.9-389.6-511.5-457.9c111.7,81,340.2,274.4,354.4,480.5
				C2610.6,3216.5,2758.3,3059.1,2758.3,3059.1z"/>
			
				<ellipse transform="matrix(0.3322 -0.9432 0.9432 0.3322 -486.9236 3961.6997)" class="st34" cx="2554.3" cy="2324.7" rx="102.8" ry="86.8"/>
			<path class="st31" d="M2572.5,1900c15.4-5.6-1.4-283.2-212-313.2C2203.7,1564.3,2543.3,1892.8,2572.5,1900z"/>
			<path class="st31" d="M2433.6,2171.6c3.7-43.8-72.6-372.3-259.5-336C2110.6,1848,2344.9,2028.9,2433.6,2171.6z"/>
			<path class="st35" d="M2648.3,1859.3c-127-103-241.6-25.7-186.8,65c-96-30.1-137.2,87.1-77.2,134c-140,48.4-70,201.7,40.6,186.8
				c50,120.5,254.9,94.8,255.9-36.6c96.9,63,209-7.8,170.6-89.3c122.1,40.3,176.2-125.9,89.3-199c95.9-75,3.1-185.8-113.7-130
				C2779,1688,2654,1735,2648.3,1859.3z"/>
			
				<ellipse transform="matrix(0.8105 -0.5857 0.5857 0.8105 -699.1 1945.0028)" class="st34" cx="2656.6" cy="2053" rx="78.2" ry="59.3"/>
			<path class="st35" d="M1766.7,2460.6c-250.3-62.4-251.5,151.3-143.7,181.4c-168.8,107.8-11.9,326.2,127.5,242.5
				c26.9,240.6,397.2,94.3,382.6-48.5c66.8,54.1,148.8-16.3,104.2-97c133.5,57.6,116.2-279.6-62.9-220.9
				c-53.7-85.6-121.9-94.6-201.2-44.9C1975.9,2313.9,1723,2335.1,1766.7,2460.6z"/>
			<path class="st30" d="M2222.2,3109.4c38.5-104.8-33.5-306.2-103.4-334.8C2040.3,2742.6,2239.9,3072.4,2222.2,3109.4z"/>
			<path class="st31" d="M2018.1,2841.3c77.5,50,100.8,92.3,104.3,120.5c-18.3-28.2-57.9-80.5-117.1-84.1
				c69.2,42.2,92.5,96,105.7,156.2c13.2,60.2,105.2-12.9,105.2-12.9C2208.6,2999.8,2142.2,2857.2,2018.1,2841.3z"/>
			<path class="st31" d="M2323.8,2742.8c-94,60.5-106.6,229.2-107.6,278.3s73.9,13.9,73.9,13.9S2267.6,2859.2,2323.8,2742.8z"/>
			<path class="st31" d="M2584.2,3136.2c-4-60.1-158.6-424.1-434.3-492.4c111.7,81,254,286.4,268.3,492.4
				C2427.6,3271.1,2584.2,3136.2,2584.2,3136.2z"/>
			
				<ellipse transform="matrix(0.8105 -0.5857 0.5857 0.8105 -1213.1012 1645.9259)" class="st34" cx="1937.3" cy="2697.9" rx="110.9" ry="84.1"/>
			<path class="st32" d="M2736.4,3139.7c15.7-100.7-178.4-416.5-472.9-472.5c283.2,170.8,326.3,353.2,332,447.7
				C2604.5,3265.9,2736.4,3139.7,2736.4,3139.7z"/>
			<path class="st32" d="M2306.3,3147c-5-77.1,6.5-251.5,50.1-325.9c-10.4,66.7,0,336.9,0,336.9L2306.3,3147z"/>
			<path class="st30" d="M950.7,3080.3c38.5-104.8-0.1-343.1-75.3-385.3C784.9,2644.3,968.4,3043.3,950.7,3080.3z"/>
		</g>
		<g style="clip-path:url(#SVGID_00000160901965519368759460000014556778191233077408_);">
			<path class="st30" d="M532.6,1500c41.5,5.6-89.3,256.1-89.3,256.1S476.4,1492.5,532.6,1500z"/>
			<path class="st36" d="M105.6,1717.3c0,0,75.4-295.9,122-254.7C274.1,1503.8,105.6,1717.3,105.6,1717.3z"/>
			<path class="st36" d="M105.6,1717.3c0,0-136.9-204.4-79.5-230.7C74.8,1464.3,105.6,1717.3,105.6,1717.3z"/>
			<path class="st36" d="M401.9,1785.3c0,0,180.5-237.8,223.2-188.7C690.9,1672.2,401.9,1785.3,401.9,1785.3z"/>
			<path class="st36" d="M105.6,1717.3c0,0-33.5-347.1,0-341C177.6,1389.5,105.6,1717.3,105.6,1717.3z"/>
			<path class="st30" d="M403.7,1878.4c0,0,218.1-185,263.8-143.6C724.3,1786.3,440.4,1873.7,403.7,1878.4z"/>
			<path class="st35" d="M176.7,1949.9c-73.4-73.4,81.3-170.4,124.5-73.4c53.7-72.1,171.7-48.5,146.8,36.7
				c100.9-75,192.7,35.4,102,119.4c0,0-225.2,89-227.8,87.7C319.6,2119,176.7,1949.9,176.7,1949.9z"/>
			<circle class="st34" cx="357.3" cy="1986.9" r="46.4"/>
			<path class="st35" d="M97.3,1665.3c8.6-111.2,233.8-143.6,232.4-27.1c71.7-72.9,146.7,13.8,125.5,78.8
				c172-88.5,89.6,267-71.5,134.1c7.9,89.9-137,50-95.9,3.8L97.3,1665.3z"/>
			
				<ellipse transform="matrix(0.569 -0.8223 0.8223 0.569 -1304.1199 1024.0869)" class="st34" cx="324.9" cy="1756.1" rx="44.4" ry="49.6"/>
			<path class="st33" d="M-18.4,1719c8.4-70.4,111.4-91.6,184.3-9.8c62.5-35.9,96.6-9.6,114,53.4c123.8,14.1,31,177.8-87.5,146.3
				c-19.4,100.1-162.7,120.6-171.4,52.3c-78.2,36.5-105.6-17.9-99.8-82.8L-18.4,1719z"/>
			
				<ellipse transform="matrix(0.569 -0.8223 0.8223 0.569 -1411.1243 894.3334)" class="st34" cx="147.6" cy="1793.3" rx="44.8" ry="53.5"/>
			<path class="st33" d="M218,2083.6c-5-103.4,168.8-149.7,197.4-51.7c15.1-54.8,140.5-27.2,122.5,42.2
				c38.1-87.1,187.8,16.3,123.9,83c114.3,20.4,74.9,186.5-44.9,160.6L267,2354.5l-110.3-202.9L218,2083.6z"/>
			
				<ellipse transform="matrix(0.8971 -0.4417 0.4417 0.8971 -943.3641 394.0626)" class="st34" cx="374.5" cy="2222.8" rx="102.1" ry="90.3"/>
			<path class="st33" d="M0,1986.2c-12-82.8,126-110.4,143.4-26.1c84.1-62.2,163.6,48.9,96.9,96.2L66,2222.8L-95.9,2121L0,1986.2z"
				/>
			<path class="st33" d="M143.3,2783.6c-72.2,13-105.5-29-111.7-109.5l438.1-79.5l55.4,52.8c174.9,95.2,152.5,299.2,25.7,241.4
				c-40.4,113-169.3,149.3-210,25.8C220.3,3023.5,31.6,2847.5,143.3,2783.6z"/>
			<path class="st31" d="M522,2694c66.5-12.8,299.7,102.3,328,361.9s-78.1-14.2-78.1-14.2S732.2,2859.3,522,2694z"/>
			<path class="st35" d="M470.7,2316.3c104.5-112.6,292.5-73.2,242.4,43.8c100.2-47.8,212.4,18,200.4,106.5
				c202.4-34.1,172.3,270.5-38.1,228.4c-6,68.9-138.2,120.2-183.3,0c-73.1,90.2-174.5,86.5-221.4-8.6l-118.2-253.8L470.7,2316.3z"/>
			
				<ellipse transform="matrix(0.8985 -0.439 0.439 0.8985 -1170.4365 427.8279)" class="st34" cx="339.8" cy="2744.4" rx="80.1" ry="89.8"/>
			<path class="st35" d="M-69.7,2151.6c69.7-194.2,401.2-181,291.2-14.2c85.6-0.9,167.5,59.4,108,137.4
				c184.6-47.2,293.5,126.5,140.7,196.3c178.1,72.1,29.4,307.8-139.2,208.1c-68.6,86.8-118.4,79.3-191.2,7.2
				c-70.2,99.4-149.7,71.2-235.6-45.1L-69.7,2151.6z"/>
			
				<ellipse transform="matrix(0.383 -0.9237 0.9237 0.383 -2138.5933 1605.4086)" class="st34" cx="132.5" cy="2403.7" rx="121.6" ry="95"/>
			
				<ellipse transform="matrix(0.2478 -0.9688 0.9688 0.2478 -1920.2053 2556.1316)" class="st34" cx="686" cy="2514.7" rx="66.1" ry="89.2"/>
			<path class="st30" d="M950.7,3080.3c0,0,146.3-221,99.5-270.5C1003.5,2760.3,950.7,3080.3,950.7,3080.3z"/>
			<path class="st32" d="M680.6,2900.8c-50.3-3.7,109.3,111.1,129,176.1C833.2,2985,761.7,2906.8,680.6,2900.8z"/>
			<path class="st32" d="M191.2,3080.3c0-28.5-65.4-224.1-141.2-234.8C-31.6,2834.1,158,3011.6,191.2,3080.3z"/>
			<path class="st30" d="M227.5,3122.1c0,0-20.6-264.3,96.6-251.4C397.7,2878.7,227.5,3122.1,227.5,3122.1z"/>
			<path class="st32" d="M-27.3,2771.7c55-111.5,208.7-232.7,208.7-232.7S13.8,2748.2,33.1,2976.3c19.3,228.1-186.8-77.1-186.8-77.1
				L-27.3,2771.7z"/>
			<path class="st30" d="M39.6,3127.7c-51.4-181.4,8.2-434,106.6-466.3C233.3,2632.9,23.3,3081.3,39.6,3127.7z"/>
			<path class="st30" d="M367.8,3173c-79.9-71.6,138.9-319.7,306.4-511.5c0,0-307.3,208.7-428,418.8
				C123.2,3294.4,367.8,3173,367.8,3173z"/>
			<path class="st32" d="M700.7,3111.5c-2.6-114.3-61.4-260.4-179.7-285.8C419.7,2803.9,613.9,2942.4,700.7,3111.5z"/>
			<path class="st31" d="M197,3254.8c3.1-60.1-139.9-584.4,91.4-622.4c-140.6,195.5-18.1,388.3-29.1,594.3
				C252,3361.6,197,3254.8,197,3254.8z"/>
			<path class="st30" d="M792.7,2800c-40.7-9.8,91.4,193.5,92.2,250.2C907.1,3012.3,877.4,2820.4,792.7,2800z"/>
			<path class="st31" d="M1024,2753.5c-66.5-12.8-482.9,68.5-522,278.7c-47.8,256.7,137.9-21.5,137.9-21.5S740.3,2850.1,1024,2753.5
				z"/>
		</g>
	</g>
</g>
</svg>
